<?xml version="1.0" standalone="no"?>
<!DOCTYPE svg PUBLIC "-//W3C//DTD SVG 20010904//EN"
 "http://www.w3.org/TR/2001/REC-SVG-20010904/DTD/svg10.dtd">
<svg version="1.0" xmlns="http://www.w3.org/2000/svg"
 width="700.000000pt" height="700.000000pt" viewBox="0 0 700.000000 700.000000"
 preserveAspectRatio="xMidYMid meet">
<metadata>
Created by potrace 1.14, written by Peter Selinger 2001-2017
</metadata>
<g transform="translate(0.000000,700.000000) scale(0.100000,-0.100000)"
fill="#000000" stroke="none">
<path d="M3337 5763 c-21 -198 -145 -357 -340 -436 -50 -21 -69 -22 -637 -28
-560 -5 -589 -7 -670 -28 -277 -71 -508 -275 -605 -534 -25 -67 -55 -213 -55
-268 0 -28 2 -29 49 -29 l48 0 7 71 c16 158 88 317 199 435 108 116 208 177
370 226 69 21 94 22 662 27 l590 6 75 27 c224 82 382 285 406 523 l7 65 -50 0
-50 0 -6 -57z"/>
<path d="M3585 5763 c-8 -81 -32 -175 -61 -246 -63 -157 -203 -306 -357 -382
-166 -81 -139 -78 -802 -85 -563 -5 -593 -7 -652 -27 -239 -81 -412 -289 -431
-520 l-5 -63 52 0 51 0 0 38 c1 177 153 372 345 444 59 22 72 22 650 28 558 6
594 7 665 27 151 42 278 115 384 220 151 150 238 336 261 561 l6 62 -50 0 -50
0 -6 -57z"/>
<path d="M6311 4401 l-22 -31 69 0 c131 0 217 -52 272 -164 l31 -63 -1 -1302
c0 -1154 -2 -1307 -16 -1348 -32 -93 -93 -157 -181 -189 -31 -11 -188 -13
-823 -14 -432 0 -903 -3 -1048 -7 l-263 -6 -20 -29 -21 -28 1089 2 1088 3 56
28 c70 34 142 109 177 185 l27 57 0 1330 0 1330 -32 67 c-59 125 -161 197
-289 206 -70 4 -71 4 -93 -27z"/>
<path d="M607 4122 c-16 -17 -17 -120 -17 -1285 0 -1120 -2 -1267 -15 -1267
-22 0 -18 -25 9 -57 l24 -28 2889 -3 c1588 -1 2898 0 2911 3 12 3 31 14 42 25
20 20 20 39 20 1300 0 1216 -1 1280 -18 1280 -9 0 -22 10 -27 23 l-10 22
-2896 3 c-2796 2 -2896 1 -2912 -16z m834 -131 l29 -30 -2 -288 -3 -288 -345
0 -345 0 -3 288 -2 288 29 30 29 29 292 0 292 0 29 -29z m942 8 c45 -34 50
-74 45 -345 -2 -137 -7 -255 -11 -261 -6 -10 -87 -13 -347 -13 -299 0 -339 2
-344 16 -3 9 -6 136 -6 282 0 286 3 305 50 329 18 9 101 13 306 13 269 0 282
-1 307 -21z m978 -8 l29 -30 -2 -288 -3 -288 -339 -3 c-228 -1 -343 1 -350 8
-16 16 -22 502 -7 551 6 21 23 47 38 58 25 20 38 21 315 21 l290 0 29 -29z
m950 0 l29 -30 -2 -288 -3 -288 -345 0 -345 0 -3 288 -2 288 29 30 29 29 292
0 292 0 29 -29z m951 0 l33 -29 3 -239 c2 -131 1 -262 -3 -291 l-6 -52 -347 2
-347 3 -3 288 -2 288 29 30 29 29 291 0 291 0 32 -29z m937 15 c48 -25 51 -46
51 -331 0 -145 -3 -270 -6 -279 -5 -14 -46 -16 -349 -16 -303 0 -344 2 -349
16 -3 9 -6 135 -6 280 0 279 4 308 47 333 11 6 127 11 301 11 226 0 289 -3
311 -14z m-4758 -855 l29 -30 -2 -288 -3 -288 -345 0 -345 0 -3 288 -2 288 29
30 29 29 292 0 292 0 29 -29z m942 8 c45 -34 50 -74 45 -345 -2 -137 -7 -255
-11 -261 -6 -10 -87 -13 -347 -13 l-340 0 -5 23 c-3 12 -5 145 -3 295 l3 274
28 24 28 24 288 0 c276 0 289 -1 314 -21z m978 -8 l29 -30 -2 -288 -3 -288
-339 -3 c-228 -1 -343 1 -350 8 -16 16 -22 502 -7 551 6 21 23 47 38 58 25 20
38 21 315 21 l290 0 29 -29z m950 0 l29 -30 -2 -288 -3 -288 -345 0 -345 0 -3
288 -2 288 29 30 29 29 292 0 292 0 29 -29z m951 0 l33 -29 3 -249 c2 -136 1
-267 -3 -291 l-6 -42 -347 2 -347 3 -3 288 -2 288 29 30 29 29 291 0 291 0 32
-29z m944 11 c12 -9 27 -27 33 -39 12 -23 16 -537 5 -567 -5 -14 -46 -16 -349
-16 -303 0 -344 2 -349 16 -3 9 -6 135 -6 280 0 279 4 308 47 333 11 6 129 10
308 10 260 1 292 -1 311 -17z m-4803 -771 c14 -6 35 -20 46 -32 20 -22 21 -32
21 -300 0 -153 -3 -284 -6 -293 -5 -14 -45 -16 -344 -16 -299 0 -339 2 -344
16 -3 9 -6 140 -6 292 1 299 0 298 56 327 24 12 76 15 291 15 144 0 273 -4
286 -9z m3572 -1 c180 -17 276 -40 303 -73 9 -11 12 -86 10 -278 l-3 -263 -25
-13 c-20 -10 -224 -13 -949 -13 l-923 0 -30 -25 -30 -25 -288 0 -288 0 -30 25
-30 25 -458 0 c-350 0 -465 3 -484 13 l-25 13 0 269 0 269 31 18 c40 23 150
47 268 57 138 12 2819 13 2951 1z m1242 -23 l28 -27 3 -281 c2 -203 0 -285 -9
-295 -9 -12 -71 -14 -349 -14 -299 0 -339 2 -344 16 -3 9 -6 138 -6 288 0 264
1 274 21 300 12 15 31 32 43 36 11 5 148 8 303 7 l283 -2 27 -28z"/>
</g>
</svg>
